# xmcd
#
# Track frame offsets:
#	150
#	16620
#	32552
#	45937
#	58260
#	71440
#	84497
#	100092
#	112687
#	123797
#	137962
#	152770
#	164390
#	179862
#	196850
#
# Disc length: 2852 seconds
#
# Revision: 1
# Processed by: cddbd v1.4PL0 Copyright (c) Steve Scherf et al.
# Submitted via: audiograbber 1.81.02
#
DISCID=b90b220f
DTITLE=Emmylou Harris - Nashville Country Duets With Carl Jackson
DYEAR=1900
DGENRE=
TTITLE0=Emmylou Harris - Gone, Gone, Gone
TTITLE1=Emmylou Harris - To Keep Your Memory Green
TTITLE2=Emmylou Harris - Under Your Spell Again
TTITLE3=Emmylou Harris - Walk Through This World With Me
TTITLE4=Emmylou Harris - I'll Never Love Another
TTITLE5=Emmylou Harris - Something Draws Me To You
TTITLE6=Emmylou Harris - When My Blue Moon Turns To Gold Again
TTITLE7=Emmylou Harris - You Made A Memory Of Me
TTITLE8=Emmylou Harris - I Take The Chance
TTITLE9=Emmylou Harris - Before I Met You
TTITLE10=Emmylou Harris - I've Always Needed You
TTITLE11=Emmylou Harris - We Must Have Been Out Of Our Miinds
TTITLE12=Emmylou Harris - Dying On Sorrow's Wine
TTITLE13=Emmylou Harris - The Best We Could Do
TTITLE14=Emmylou Harris - Nobody's Darling But Mine
EXTD=
EXTT0=
EXTT1=
EXTT2=
EXTT3=
EXTT4=
EXTT5=
EXTT6=
EXTT7=
EXTT8=
EXTT9=
EXTT10=
EXTT11=
EXTT12=
EXTT13=
EXTT14=
PLAYORDER=
